<?xml version="1.0" encoding="UTF-8"?>
<!-- Created with Inkscape (http://www.inkscape.org/) -->
<svg width="32" height="32" version="1.1" viewBox="0 0 8.4667 8.4667" xmlns="http://www.w3.org/2000/svg">
 <g transform="translate(-300.96 -65.349)">
  <g transform="matrix(1.0151 0 0 1.0151 -4.5381 -.98539)">
   <circle cx="305.13" cy="69.52" r="4.0441" fill="#f4fce3" stroke="#d8f5a2" stroke-linecap="round" stroke-width=".25275"/>
   <path transform="matrix(.068468 0 0 .068468 280.3 60.816)" d="m362.91 111.15q-0.81643 11.539-0.81643 22.914 0 8.9263 1.6328 11.648 1.6329 2.667 6.2593 2.667 3.81 0 9.7971-0.97972l0.32658 2.4493q-9.3073 4.7353-16.492 4.7353-5.8239 0-8.5997-3.1568-2.7214-3.2113-2.7214-9.6339 0-9.144 2.8847-30.643h-17.526l-0.32658-2.0139q6.096-2.9936 11.648-6.1504h15.349q14.043 0 20.302-0.16328l0.32658 0.38099q-0.97972 3.6467-1.8506 8.4909-8.8719-0.54428-20.193-0.54428z" fill="#242424" stroke-width="0" style="font-variation-settings:'wght' 500;white-space:pre" aria-label="τ "/>
  </g>
 </g>
</svg>
