<?xml version="1.0" encoding="UTF-8"?>
<!-- Created with Inkscape (http://www.inkscape.org/) -->
<svg width="32" height="32" version="1.1" viewBox="0 0 8.4667 8.4667" xmlns="http://www.w3.org/2000/svg">
 <g transform="translate(-160.34 -242.61)">
  <g>
   <circle cx="164.57" cy="246.85" r="4.1051" fill="#f4fce3" stroke="#d8f5a2" stroke-linecap="round" stroke-width=".25656"/>
   <path d="m164.8 246.06c-0.038 0.53705-0.057 1.344-0.057 1.344 0 0.41546 0.038 0.68653 0.114 0.81319 0.076 0.12413 0.23753 0.17678 0.26852 0.18373 0.17304 0.0388 0.29835-0.0203 0.57702-0.066l0.16192 0.26144c-0.4332 0.22039-0.81699 0.33059-1.1514 0.33059-0.27105 0-0.59801-0.095-0.73951-0.31083-0.12666-0.14947-0.18999-0.37366-0.18999-0.67259 0-0.42559 0.0671-0.88294 0.20139-1.8836h-1.499l-0.0785-0.33536c0.28373-0.13934 0.61044-0.34347 0.86884-0.4904h1.347c0.65358 0 1.4113-4e-3 1.7026-0.0114l0.0228 0.0266c-0.0456 0.16973-0.0887 0.6231-0.1292 0.84857-0.41293-0.0254-0.89269-0.038-1.4196-0.038z" fill="#242424" stroke-width="0" style="font-variation-settings:'wght' 500;white-space:pre" aria-label="τ "/>
  </g>
 </g>
</svg>
