<?xml version="1.0" encoding="UTF-8"?>
<!-- Created with Inkscape (http://www.inkscape.org/) -->
<svg width="160" height="150.37" version="1.1" viewBox="0 0 42.333 39.786" xmlns="http://www.w3.org/2000/svg">
 <g transform="translate(-171.14 -255.11)">
  <path d="m196.83 264.1c-0.40816 5.7684-0.61224 14.436-0.61224 14.436 0 4.4624 0.40816 7.374 1.2245 8.7344 0.81631 1.3333 2.5513 1.8988 2.8841 1.9734 1.8586 0.41675 3.2046-0.21804 6.1977-0.70889l1.7392 2.8081c-4.653 2.3672-8.7752 3.5508-12.367 3.5508-2.9113 0-6.4232-1.0204-7.943-3.3386-1.3604-1.6054-2.0407-4.0134-2.0407-7.2242 0-4.5712 0.72071-9.4836 2.1631-20.231h-16.101l-0.84316-3.6021c3.0475-1.4966 6.5567-3.6892 9.3321-5.2673h14.468c7.02 0 15.159-0.043 18.288-0.12245l0.2449 0.28571c-0.48979 1.823-0.95272 6.6926-1.3877 9.1144-4.4352-0.27282-9.5883-0.40816-15.248-0.40816z" fill="#242424" stroke-width="0" style="font-variation-settings:'wght' 500;white-space:pre" aria-label="τ "/>
 </g>
</svg>
