<?xml version="1.0" encoding="UTF-8"?>
<!-- Created with Inkscape (http://www.inkscape.org/) -->
<svg width="147.21" height="160" version="1.1" viewBox="0 0 38.95 42.333" xmlns="http://www.w3.org/2000/svg">
 <g transform="translate(-298.4 -62.783)">
  <path d="m319.33 69.593q-0.66772 9.4371-0.66772 18.741 0 7.3004 1.3354 9.5261 1.3354 2.1812 5.1192 2.1812 3.116 0 8.0126-0.80126l0.2671 2.0032q-7.612 3.8728-13.488 3.8728-4.7631 0-7.0333-2.5818-2.2257-2.6264-2.2257-7.8791 0-7.4784 2.3592-25.062h-14.334l-0.26709-1.647q4.9856-2.4483 9.5261-5.0301h12.553q11.485 0 16.604-0.13354l0.26709 0.3116q-0.80128 2.9825-1.5135 6.9443-7.2559-0.44514-16.515-0.44514z" fill="#242424" stroke-width="0" style="font-variation-settings:'wght' 500;white-space:pre" aria-label="τ "/>
 </g>
</svg>
